<?xml version="1.0"?><!DOCTYPE svg  PUBLIC '-//W3C//DTD SVG 1.1//EN'  'http://www.w3.org/Graphics/SVG/1.1/DTD/svg11.dtd'><svg enable-background="new 0 0 139 139" height="139px" id="Clock" version="1.1" viewBox="0 0 139 139" width="139px" xml:space="preserve" xmlns="http://www.w3.org/2000/svg" xmlns:xlink="http://www.w3.org/1999/xlink"><path d="M90.836,83.216l-16.9-9.557V38.768c0-2.541-2.061-4.601-4.602-4.601c-2.541,0-4.601,2.061-4.601,4.601v37.575  c0,0.059,0.016,0.115,0.017,0.174c0.006,0.162,0.025,0.319,0.048,0.479c0.021,0.146,0.042,0.291,0.076,0.433  c0.035,0.141,0.082,0.277,0.129,0.414c0.051,0.146,0.1,0.287,0.164,0.426c0.061,0.133,0.134,0.257,0.208,0.383  c0.075,0.127,0.148,0.254,0.234,0.374c0.088,0.122,0.188,0.235,0.288,0.349c0.097,0.11,0.192,0.217,0.299,0.317  c0.107,0.101,0.222,0.19,0.339,0.28c0.126,0.098,0.253,0.191,0.39,0.276c0.052,0.031,0.092,0.073,0.145,0.102l19.236,10.878  c0.716,0.404,1.493,0.597,2.261,0.597c1.605,0,3.163-0.841,4.009-2.337C93.827,87.274,93.047,84.467,90.836,83.216z"/><path d="M69.5,6.666C34.853,6.666,6.666,34.853,6.666,69.5c0,34.646,28.187,62.834,62.834,62.834  c34.646,0,62.834-28.188,62.834-62.834C132.334,34.853,104.146,6.666,69.5,6.666z M73.5,122.167V113h-8v9.167  C40.73,120.302,20.677,101.295,17.208,77h9.459v-8h-9.988C16.937,41.442,38.395,18.874,65.5,16.833V26h8v-9.167  c27.104,2.041,48.563,24.609,48.821,52.167h-9.487v8h8.958C118.323,101.295,98.271,120.302,73.5,122.167z"/></svg>